<?xml version="1.0" encoding="UTF-8" standalone="no"?><!DOCTYPE svg PUBLIC "-//W3C//DTD SVG 1.1//EN" "http://www.w3.org/Graphics/SVG/1.1/DTD/svg11.dtd"><svg width="100%" height="100%" viewBox="0 0 600 420" version="1.1" xmlns="http://www.w3.org/2000/svg" xmlns:xlink="http://www.w3.org/1999/xlink" xml:space="preserve" xmlns:serif="http://www.serif.com/" style="fill-rule:evenodd;clip-rule:evenodd;"><g><rect x="220" y="20" width="160" height="60" style="fill:#f8fafc;stroke:#6b25dd;stroke-width:2px;"/><text x="228.248px" y="45px" style="font-family:'Futura-Medium', 'Futura', sans-serif;font-weight:500;font-size:15px;fill:#0f172a;">Pr<tspan x="241.827px 250.844px " y="45px 45px ">od</tspan>uction Com<tspan x="336.442px 345.436px 353.61px 357.843px 366.141px " y="45px 45px 45px 45px 45px ">puter</tspan></text><text x="253.626px" y="65px" style="font-family:'Futura-Medium', 'Futura', sans-serif;font-weight:500;font-size:11px;fill:#64748b;">Producer Sof<tspan x="318.31px 321.318px 329.654px 336.25px " y="65px 65px 65px 65px ">twar</tspan>e</text></g><g><rect x="220" y="140" width="160" height="40" style="fill:#f1f5f9;stroke:#3b82f6;stroke-width:2px;"/><text x="231.035px" y="165px" style="font-family:'Futura-Medium', 'Futura', sans-serif;font-weight:500;font-size:15px;fill:#1e3a8a;">N<tspan x="243.867px 252.297px 256.399px 267.737px 276.753px 282.59px 290.061px " y="165px 165px 165px 165px 165px 165px 165px ">etwork </tspan>(T<tspan x="307.017px 317.527px " y="165px 165px ">CP</tspan>/UDP)</text></g><path d="M300,80l0,54" style="fill:none;fill-rule:nonzero;stroke:#94a3b8;stroke-width:2px;"/><g><rect x="30" y="240" width="150" height="60" style="fill:#f8fafc;stroke:#6b25dd;stroke-width:2px;"/><text x="50.098px" y="265px" style="font-family:'Futura-Medium', 'Futura', sans-serif;font-weight:500;font-size:15px;fill:#0f172a;">Displa<tspan x="92.666px 100.818px " y="265px 265px ">y </tspan>Com<tspan x="137.021px 146.016px " y="265px 265px ">p </tspan>1</text><text x="62.329px" y="285px" style="font-family:'Futura-Medium', 'Futura', sans-serif;font-weight:500;font-size:11px;fill:#64748b;">Display Sof<tspan x="119.607px 122.615px 130.95px 137.546px " y="285px 285px 285px 285px ">twar</tspan>e</text></g><g><rect x="225" y="240" width="150" height="60" style="fill:#f8fafc;stroke:#6b25dd;stroke-width:2px;"/><text x="245.098px" y="265px" style="font-family:'Futura-Medium', 'Futura', sans-serif;font-weight:500;font-size:15px;fill:#0f172a;">Displa<tspan x="287.666px 295.818px " y="265px 265px ">y </tspan>Com<tspan x="332.021px 341.016px " y="265px 265px ">p </tspan>2</text><text x="257.329px" y="285px" style="font-family:'Futura-Medium', 'Futura', sans-serif;font-weight:500;font-size:11px;fill:#64748b;">Display Sof<tspan x="314.607px 317.615px 325.95px 332.546px " y="285px 285px 285px 285px ">twar</tspan>e</text></g><g><rect x="420" y="240" width="150" height="60" style="fill:#f8fafc;stroke:#6b25dd;stroke-width:2px;"/><text x="440.098px" y="265px" style="font-family:'Futura-Medium', 'Futura', sans-serif;font-weight:500;font-size:15px;fill:#0f172a;">Displa<tspan x="482.666px 490.818px " y="265px 265px ">y </tspan>Com<tspan x="527.021px 536.016px " y="265px 265px ">p </tspan>3</text><text x="452.329px" y="285px" style="font-family:'Futura-Medium', 'Futura', sans-serif;font-weight:500;font-size:11px;fill:#64748b;">Display Sof<tspan x="509.607px 512.615px 520.95px 527.546px " y="285px 285px 285px 285px ">twar</tspan>e</text></g><path d="M300,180l0,30l-195,0l0,24" style="fill:none;fill-rule:nonzero;stroke:#94a3b8;stroke-width:2px;"/><path d="M300,180l0,54" style="fill:none;fill-rule:nonzero;stroke:#94a3b8;stroke-width:2px;"/><path d="M300,180l0,30l195,0l0,24" style="fill:none;fill-rule:nonzero;stroke:#94a3b8;stroke-width:2px;"/><g><rect x="80" y="350" width="50" height="30" style="fill:#fff1f2;stroke:#ec4899;stroke-width:2px;"/><text x="88.052px" y="370px" style="font-family:'Futura-Medium', 'Futura', sans-serif;font-weight:500;font-size:11px;fill:#be185d;">Screen</text><path d="M105,300l0,44" style="fill:none;fill-rule:nonzero;stroke:#cbd5e1;stroke-width:2px;"/></g><g><rect x="275" y="350" width="50" height="30" style="fill:#fff1f2;stroke:#ec4899;stroke-width:2px;"/><text x="283.052px" y="370px" style="font-family:'Futura-Medium', 'Futura', sans-serif;font-weight:500;font-size:11px;fill:#be185d;">Screen</text><path d="M300,300l0,44" style="fill:none;fill-rule:nonzero;stroke:#cbd5e1;stroke-width:2px;"/></g><g><rect x="470" y="350" width="50" height="30" style="fill:#fff1f2;stroke:#ec4899;stroke-width:2px;"/><text x="478.052px" y="370px" style="font-family:'Futura-Medium', 'Futura', sans-serif;font-weight:500;font-size:11px;fill:#be185d;">Screen</text><path d="M495,300l0,44" style="fill:none;fill-rule:nonzero;stroke:#cbd5e1;stroke-width:2px;"/></g></svg>