<?xml version="1.0" encoding="UTF-8" standalone="no"?><!DOCTYPE svg PUBLIC "-//W3C//DTD SVG 1.1//EN" "http://www.w3.org/Graphics/SVG/1.1/DTD/svg11.dtd"><svg width="100%" height="100%" viewBox="0 0 800 450" version="1.1" xmlns="http://www.w3.org/2000/svg" xmlns:xlink="http://www.w3.org/1999/xlink" xml:space="preserve" xmlns:serif="http://www.serif.com/" style="fill-rule:evenodd;clip-rule:evenodd;"><text x="254.01px" y="40px" style="font-family:'Futura-Bold', 'Futura', sans-serif;font-weight:700;font-size:20px;fill:#6b25dd;">EDGE BLENDIN<tspan x="412.33px 429.93px " y="40px 40px ">G </tspan>PRIN<tspan x="489.97px 503.31px " y="40px 40px ">CI</tspan>PLE</text><g><rect x="50" y="70" width="700" height="150" style="fill:#f1f5f9;stroke:#e2e8f0;stroke-width:1px;"/><text x="350.547px" y="60px" style="font-family:'Futura-Medium', 'Futura', sans-serif;font-weight:500;font-size:12px;fill:#64748b;">Pr<tspan x="361.41px 368.623px " y="60px 60px ">oj</tspan>ection Sur<tspan x="426.156px 429.9px 437.096px " y="60px 60px 60px ">fac</tspan>e</text><rect x="100" y="95" width="350" height="100" style="fill:#3b82f6;fill-opacity:0.1;stroke:#3b82f6;stroke-width:2px;stroke-dasharray:5,5;"/><text x="109.001px" y="115px" style="font-family:'Futura-Bold', 'Futura', sans-serif;font-weight:700;font-size:14px;fill:#3b82f6;">Project<tspan x="160.409px 170.209px " y="115px 115px ">or</tspan> 1</text><rect x="350" y="95" width="350" height="100" style="fill:#ef4444;fill-opacity:0.1;stroke:#ef4444;stroke-width:2px;stroke-dasharray:5,5;"/><text x="609.001px" y="115px" style="font-family:'Futura-Bold', 'Futura', sans-serif;font-weight:700;font-size:14px;fill:#ef4444;">Project<tspan x="660.409px 670.209px " y="115px 115px ">or</tspan> 2</text><rect x="350" y="95" width="100" height="100" style="fill:none;stroke:#6b25dd;stroke-width:2px;"/><text x="349.456px" y="215px" style="font-family:'Futura-Bold', 'Futura', sans-serif;font-weight:700;font-size:12px;fill:#6b25dd;">Ov<tspan x="368.092px 375.856px " y="215px 215px ">er</tspan>lap R<tspan x="414.388px 422.152px " y="215px 215px ">eg</tspan>ion</text><rect x="350" y="95" width="100" height="100"/><rect x="350" y="95" width="100" height="100" style="fill:url(#_Linear1);"/></g><g><text x="295.42px" y="250px" style="font-family:'Futura-Bold', 'Futura', sans-serif;font-weight:700;font-size:14px;fill:#475569;">Luminance / Int<tspan x="411.704px 420.762px " y="250px 250px ">en</tspan>sity Cur<tspan x="486.73px 495.522px " y="250px 250px ">ve</tspan></text><path d="M50,410l700,0" style="fill:none;fill-rule:nonzero;stroke:#cbd5e1;stroke-width:1px;"/><path d="M100,260l0,150" style="fill:none;fill-rule:nonzero;stroke:#cbd5e1;stroke-width:1px;"/><path d="M700,260l0,150" style="fill:none;fill-rule:nonzero;stroke:#cbd5e1;stroke-width:1px;"/><text x="61.602px" y="410px" style="font-family:'Futura-Medium', 'Futura', sans-serif;font-weight:500;font-size:12px;fill:#64748b;">0%</text><text x="47.51px" y="280px" style="font-family:'Futura-Medium', 'Futura', sans-serif;font-weight:500;font-size:12px;fill:#64748b;">1<tspan x="54.195px 61.602px " y="280px 280px ">00</tspan>%</text><path d="M100,280l250,0l100,130" style="fill:none;fill-rule:nonzero;stroke:#3b82f6;stroke-width:3px;"/><text x="146.158px" y="430px" style="font-family:'Futura-Medium', 'Futura', sans-serif;font-weight:500;font-size:12px;fill:#3b82f6;">Pr<tspan x="157.021px 164.234px " y="430px 430px ">oj</tspan>ector 1 Int<tspan x="222.963px 229.602px " y="430px 430px ">en</tspan>sity</text><path d="M350,410l100,-130l250,0" style="fill:none;fill-rule:nonzero;stroke:#ef4444;stroke-width:3px;"/><text x="546.158px" y="430px" style="font-family:'Futura-Medium', 'Futura', sans-serif;font-weight:500;font-size:12px;fill:#ef4444;">Pr<tspan x="557.021px 564.234px " y="430px 430px ">oj</tspan>ector 2 Int<tspan x="622.963px 629.602px " y="430px 430px ">en</tspan>sity</text><path d="M100,275l600,0" style="fill:none;fill-rule:nonzero;stroke:#22c55e;stroke-width:2px;stroke-dasharray:4,2;"/><text x="356.559px" y="270px" style="font-family:'Futura-Medium', 'Futura', sans-serif;font-weight:500;font-size:12px;fill:#22c55e;">T<tspan x="361.809px 369.092px " y="270px 270px ">ot</tspan>al Luminance</text><path d="M350,260l0,150" style="fill:none;fill-rule:nonzero;stroke:#cbd5e1;stroke-width:1px;stroke-dasharray:2,2;"/><path d="M450,260l0,150" style="fill:none;fill-rule:nonzero;stroke:#cbd5e1;stroke-width:1px;stroke-dasharray:2,2;"/></g><defs><linearGradient id="_Linear1" x1="0" y1="0" x2="1" y2="0" gradientUnits="userSpaceOnUse" gradientTransform="matrix(100,0,0,100,350,95)"><stop offset="0" style="stop-color:#ef4444;stop-opacity:0"/><stop offset="1" style="stop-color:#ef4444;stop-opacity:0.8"/></linearGradient></defs></svg>